<svg width="257" height="110" viewBox="0 0 257 110" fill="none" xmlns="http://www.w3.org/2000/svg">
<rect width="110" height="110" rx="20" fill="#00A896"/>
<path d="M142.198 60.198L142.88 57.408C143.872 53.564 144.864 48.728 145.732 44.636H145.98C146.972 48.666 147.964 53.564 148.956 57.408L149.638 60.198H142.198ZM153.544 77H164.828L152.552 36.7H139.656L127.38 77H138.292L140.276 68.444H151.56L153.544 77ZM171.771 77H181.319V65.096C181.319 61.004 180.451 54.742 179.955 50.712H180.203L183.427 60.384L188.387 73.714H194.091L199.051 60.384L202.399 50.712H202.647C202.151 54.742 201.283 61.004 201.283 65.096V77H210.955V36.7H199.547L193.719 53.192C192.975 55.424 192.355 57.904 191.611 60.26H191.363C190.619 57.904 189.999 55.424 189.255 53.192L183.179 36.7H171.771V77ZM223.006 77H233.67V64.228H238.01C246.442 64.228 254.13 59.95 254.13 50.092C254.13 39.924 246.566 36.7 237.762 36.7H223.006V77ZM233.67 55.796V45.132H237.266C241.358 45.132 243.714 46.496 243.714 50.092C243.714 53.688 241.73 55.796 237.514 55.796H233.67Z" fill="#028090"/>
<path d="M22.1953 79.9998C40.4201 79.9998 42.2426 55.5317 55 55.5317C67.7573 55.5317 69.5798 79.9998 87.8046 79.9998" stroke="white" stroke-opacity="0.5" stroke-width="5" stroke-linecap="round"/>
<path d="M22 79.847C40.1351 77.6555 42.1668 30 55.0002 30" stroke="white" stroke-width="7" stroke-linecap="round"/>
<path d="M88 79.6944C69.8649 77.5096 67.8332 30 54.9998 30" stroke="white" stroke-width="7" stroke-linecap="round"/>
</svg>
